<svg xmlns="http://www.w3.org/2000/svg" version="1.1" xmlns:xlink="http://www.w3.org/1999/xlink" xmlns:svgjs="http://svgjs.dev/svgjs" width="2000" height="303" viewBox="0 0 2000 303"><g transform="matrix(1,0,0,1,-1.2121212121212466,-2.2363073229292354)"><svg viewBox="0 0 396 60" data-background-color="#ffffff" preserveAspectRatio="xMidYMid meet" height="303" width="2000" xmlns="http://www.w3.org/2000/svg" xmlns:xlink="http://www.w3.org/1999/xlink"><g id="tight-bounds" transform="matrix(1,0,0,1,0.2400000000000091,0.4428331332533162)"><svg viewBox="0 0 395.52 59.114333733493396" height="59.114333733493396" width="395.52"><g><svg viewBox="0 0 395.52 59.114333733493396" height="59.114333733493396" width="395.52"><g><svg viewBox="0 0 395.52 59.114333733493396" height="59.114333733493396" width="395.52"><g id="textblocktransform"><svg viewBox="0 0 395.52 59.114333733493396" height="59.114333733493396" width="395.52" id="textblock"><g><svg viewBox="0 0 395.52 59.114333733493396" height="59.114333733493396" width="395.52"><g transform="matrix(1,0,0,1,0,0)"><svg width="395.52" viewBox="1.55 -36.7 249.88 37.35" height="59.114333733493396" data-palette-color="#010c80"><g class="wordmark-text-0" data-fill-palette-color="primary" id="text-0"><path d="M18.8 0.1L18.8 0.1Q13.9 0.1 9.98-1.93 6.05-3.95 3.8-7.95 1.55-11.95 1.55-17.8L1.55-17.8Q1.55-23.65 3.83-27.9 6.1-32.15 10.08-34.43 14.05-36.7 19.15-36.7L19.15-36.7Q25.05-36.7 28.2-35.05 31.35-33.4 31.35-30.15L31.35-30.15Q31.35-27.65 30-26.03 28.65-24.4 26.3-24.4L26.3-24.4Q24.3-24.4 22.43-24.93 20.55-25.45 18.05-25.45L18.05-25.45Q14.85-25.45 13-23.6 11.15-21.75 11.15-18.75L11.15-18.75Q11.15-15.8 13-13.83 14.85-11.85 18.05-11.85L18.05-11.85Q19.75-11.85 21.18-12.13 22.6-12.4 23.98-12.7 25.35-13 26.95-13L26.95-13Q29.6-13 30.85-11.28 32.1-9.55 32.1-7L32.1-7Q32.1-4.45 30.25-2.88 28.4-1.3 25.38-0.6 22.35 0.1 18.8 0.1ZM47.05 0.1L47.05 0.1Q41.2 0.1 37.72-3.38 34.25-6.85 34.25-13.2L34.25-13.2Q34.25-17.1 35.85-20.05 37.45-23 40.32-24.68 43.2-26.35 47.05-26.35L47.05-26.35Q51.35-26.35 54.2-24.68 57.05-23 58.47-20.05 59.9-17.1 59.9-13.2L59.9-13.2Q59.9-6.85 56.72-3.38 53.55 0.1 47.05 0.1ZM40.2-14.05L40.2-14.05Q40.2-12.5 41.75-11.88 43.3-11.25 47.05-11.25L47.05-11.25Q50.8-11.25 52.35-11.88 53.9-12.5 53.9-14.05L53.9-14.05Q53.9-15.55 52.35-16.15 50.8-16.75 47.05-16.75L47.05-16.75Q43.3-16.75 41.75-16.15 40.2-15.55 40.2-14.05ZM70.34 0L70.34 0Q66.84 0 64.65-2.65 62.45-5.3 62.4-10.1L62.4-10.1 62.35-21.65Q62.35-23.8 63.67-25.03 65-26.25 67.3-26.25L67.3-26.25Q69.5-26.25 70.84-25.03 72.2-23.8 72.2-21.65L72.2-21.65 72.2-11.2Q72.2-7.45 75.15-7.45L75.15-7.45Q76.59-7.45 77.09-8.53 77.59-9.6 77.59-11.3L77.59-11.3 77.59-21.65Q77.59-23.6 78.95-24.93 80.3-26.25 82.45-26.25L82.45-26.25Q84.7-26.25 85.92-24.93 87.15-23.6 87.15-21.65L87.15-21.65 87.15-5.25Q87.15-2.85 86.07-1.43 85 0 82.59 0L82.59 0Q80.25 0 78.92-1.43 77.59-2.85 77.59-5.25L77.59-5.25 77.59-6.1 76.7-6.1Q76.7-3.2 74.97-1.6 73.25 0 70.34 0ZM94.69 0L94.69 0Q92.34 0 91.04-1.35 89.74-2.7 89.74-4.75L89.74-4.75 89.74-21.15Q89.74-23.3 91.04-24.73 92.34-26.15 94.69-26.15L94.69-26.15Q97.04-26.15 98.29-24.73 99.54-23.3 99.54-21.25L99.54-21.25 99.54-20.2 100.49-20.2Q100.69-22.85 102.49-24.55 104.29-26.25 106.74-26.25L106.74-26.25Q109.19-26.25 110.62-24.75 112.04-23.25 112.04-20.75L112.04-20.75Q112.04-18.4 110.69-16.85 109.34-15.3 107.24-15.3L107.24-15.3Q105.49-15.3 104.32-16.13 103.14-16.95 102.59-18.05L102.59-18.05Q100.99-18.25 100.27-17.73 99.54-17.2 99.54-15.65L99.54-15.65 99.54-4.75Q99.54-2.7 98.29-1.35 97.04 0 94.69 0ZM126.44 0.65L126.44 0.65Q122.99 0.65 120.07-0.03 117.14-0.7 115.39-2.18 113.64-3.65 113.64-6.1L113.64-6.1Q113.64-8.25 114.94-9.65 116.24-11.05 118.39-11.05L118.39-11.05Q119.74-11.05 121.12-10.63 122.49-10.2 124.04-9.8 125.59-9.4 127.39-9.4L127.39-9.4Q128.99-9.4 129.54-9.58 130.09-9.75 130.09-10.25L130.09-10.25Q130.09-10.85 129.42-11.05 128.74-11.25 127.14-11.55L127.14-11.55 123.54-12.25Q121.29-12.7 119.17-13.43 117.04-14.15 115.67-15.6 114.29-17.05 114.29-19.55L114.29-19.55Q114.29-22.95 117.32-24.85 120.34-26.75 126.09-26.75L126.09-26.75Q129.39-26.75 132.02-26.1 134.64-25.45 136.19-24.18 137.74-22.9 137.74-21L137.74-21Q137.79-18.95 136.64-17.7 135.49-16.45 133.74-16.45L133.74-16.45Q132.49-16.45 131.22-16.78 129.94-17.1 128.47-17.48 126.99-17.85 125.09-17.9L125.09-17.9Q123.74-18 122.89-17.75 122.04-17.5 122.04-16.95L122.04-16.95Q122.04-16.35 123.04-16.13 124.04-15.9 126.04-15.55L126.04-15.55 129.59-14.9Q132.84-14.35 134.77-13.53 136.69-12.7 137.54-11.25 138.39-9.8 138.39-7.25L138.39-7.25Q138.39-4.6 136.87-2.83 135.34-1.05 132.64-0.2 129.94 0.65 126.44 0.65ZM140.64-13L140.64-13Q140.64-16.95 142.21-19.95 143.79-22.95 146.71-24.65 149.64-26.35 153.69-26.35L153.69-26.35Q156.84-26.35 159.36-25.2 161.89-24.05 163.34-22.13 164.79-20.2 164.79-17.9L164.79-17.9Q164.79-15.5 163.39-14.5 161.99-13.5 159.24-13.5L159.24-13.5 148.74-13.5Q148.74-12.2 149.76-11.35 150.79-10.5 153.24-10.5L153.24-10.5Q154.49-10.5 155.56-10.75 156.64-11 157.76-11.23 158.89-11.45 160.29-11.45L160.29-11.45Q162.29-11.45 163.59-10.03 164.89-8.6 164.89-6.1L164.89-6.1Q164.89-3.15 161.86-1.5 158.84 0.15 153.94 0.15L153.94 0.15Q150.49 0.15 147.46-1.2 144.44-2.55 142.54-5.48 140.64-8.4 140.64-13ZM148.89-15.15L156.84-15.15Q157.59-15.15 157.34-15.85L157.34-15.85Q157.14-16.55 156.14-17.3 155.14-18.05 153.24-18.05L153.24-18.05Q151.04-18.05 149.96-17.1 148.89-16.15 148.89-15.15L148.89-15.15ZM172.49 0L172.49 0Q169.99 0 168.69-1.55 167.39-3.1 167.39-5.7L167.39-5.7 167.39-29.15Q167.39-31.75 168.36-33.38 169.34-35 170.91-35.75 172.49-36.5 174.34-36.5L174.34-36.5Q177.09-36.5 178.99-35.05 180.89-33.6 181.94-29.95L181.94-29.95 187.34-11.5 188.14-11.5 188.14-30.7Q188.14-33.35 189.49-34.88 190.84-36.4 193.34-36.4L193.34-36.4Q195.94-36.4 197.21-34.88 198.49-33.35 198.49-30.7L198.49-30.7 198.49-8.1Q198.49-3.9 196.64-1.9 194.79 0.1 191.44 0.1L191.44 0.1Q188.04 0.1 186.14-1.7 184.24-3.5 183.24-7L183.24-7 179.69-19.15Q179.59-19.65 179.31-20.08 179.04-20.5 178.59-20.5L178.59-20.5Q178.04-20.5 177.84-20.08 177.64-19.65 177.64-19.15L177.64-19.15 177.64-5.7Q177.64-3.1 176.34-1.55 175.04 0 172.49 0ZM201.23-13L201.23-13Q201.23-16.95 202.81-19.95 204.38-22.95 207.31-24.65 210.23-26.35 214.28-26.35L214.28-26.35Q217.43-26.35 219.96-25.2 222.48-24.05 223.93-22.13 225.38-20.2 225.38-17.9L225.38-17.9Q225.38-15.5 223.98-14.5 222.58-13.5 219.83-13.5L219.83-13.5 209.33-13.5Q209.33-12.2 210.36-11.35 211.38-10.5 213.83-10.5L213.83-10.5Q215.08-10.5 216.16-10.75 217.23-11 218.36-11.23 219.48-11.45 220.88-11.45L220.88-11.45Q222.88-11.45 224.18-10.03 225.48-8.6 225.48-6.1L225.48-6.1Q225.48-3.15 222.46-1.5 219.43 0.15 214.53 0.15L214.53 0.15Q211.08 0.15 208.06-1.2 205.03-2.55 203.13-5.48 201.23-8.4 201.23-13ZM209.48-15.15L217.43-15.15Q218.18-15.15 217.93-15.85L217.93-15.85Q217.73-16.55 216.73-17.3 215.73-18.05 213.83-18.05L213.83-18.05Q211.63-18.05 210.56-17.1 209.48-16.15 209.48-15.15L209.48-15.15ZM242.23 0.15L242.23 0.15Q239.58 0.15 237.46-1.05 235.33-2.25 234.13-4.48 232.93-6.7 232.93-9.7L232.93-9.7 232.93-18.5 231.08-18.25Q229.58-18.05 228.43-19.3 227.28-20.55 227.28-22.45L227.28-22.45Q227.28-24.35 228.43-25.58 229.58-26.8 231.08-26.6L231.08-26.6 232.93-26.35 232.88-29.75Q232.83-31.75 234.03-32.93 235.23-34.1 237.53-34.1L237.53-34.1Q239.83-34.1 241.08-32.93 242.33-31.75 242.23-29.75L242.23-29.75 242.13-26.35 244.78-26.7Q247.48-27.1 248.88-25.73 250.28-24.35 250.28-22.45L250.28-22.45Q250.28-20.55 248.91-19.18 247.53-17.8 244.93-18.15L244.93-18.15 242.13-18.5 242.13-11.05Q242.13-10.4 242.58-9.88 243.03-9.35 243.68-9.55L243.68-9.55Q244.43-9.75 245.26-10.4 246.08-11.05 247.38-11.05L247.38-11.05Q249.33-11.05 250.38-9.65 251.43-8.25 251.43-6.2L251.43-6.2Q251.43-4.6 250.31-3.13 249.18-1.65 247.13-0.75 245.08 0.15 242.23 0.15Z" fill="#010c80" data-fill-palette-color="primary"></path></g></svg></g></svg></g></svg></g></svg></g></svg></g><defs></defs></svg><rect width="395.52" height="59.114333733493396" fill="none" stroke="none" visibility="hidden"></rect></g></svg></g></svg>